<svg xmlns="http://www.w3.org/2000/svg" viewBox="0 0 512 512" fill="#D19C1E"><path d="M504.52 298.006a7.114 7.114 0 0 0-.026-.505c-.006-.081-.009-.163-.018-.243-.016-.142-.041-.284-.065-.426-.018-.107-.033-.215-.056-.32-.022-.103-.053-.206-.079-.309-.037-.141-.073-.283-.117-.421-.024-.074-.054-.148-.081-.222a7.102 7.102 0 0 0-.188-.479c-.008-.018-.013-.037-.022-.055l-57.593-127.731h42.178c7.335 0 13.302-5.967 13.302-13.302v-17.654c0-7.335-5.967-13.302-13.302-13.302h-67.877c-12.877 0-24.835-5.185-33.669-14.6-15.132-16.127-37.023-25.377-60.06-25.377H280.04V66.607c8.311-6.912 13.612-17.325 13.612-28.954C293.652 16.891 276.76 0 255.999 0s-37.653 16.891-37.653 37.653c0 11.629 5.301 22.041 13.612 28.954V83.06h-46.806c-23.038 0-44.929 9.25-60.062 25.378-8.833 9.415-20.79 14.6-33.668 14.6H23.544c-7.335 0-13.302 5.967-13.302 13.302v17.654c0 7.335 5.967 13.302 13.302 13.302h42.028L8.126 295.033l-.022.057a7.194 7.194 0 0 0-.181.464c-.029.079-.061.157-.086.236-.043.133-.077.269-.113.406-.028.108-.06.215-.083.323-.021.1-.035.203-.052.304-.025.147-.051.293-.067.44-.008.076-.011.154-.017.231a7.426 7.426 0 0 0-.026.516l-.003.057v7.267c0 36.931 30.046 66.978 66.978 66.978h5.732c36.932 0 66.978-30.046 66.978-66.978v-7.267c0-.022-.003-.042-.003-.064-.001-.165-.013-.33-.025-.495-.006-.085-.009-.17-.018-.253-.015-.139-.04-.279-.064-.418-.018-.109-.034-.219-.057-.326-.022-.103-.052-.204-.079-.307-.037-.142-.073-.284-.118-.423-.024-.075-.055-.149-.082-.223a7.574 7.574 0 0 0-.186-.476l-.022-.057-57.594-127.73h5.295c23.036 0 44.926-9.25 60.058-25.378 8.833-9.415 20.79-14.6 33.668-14.6h44.022v294.917h-76.176c-12.468 0-22.611 10.143-22.611 22.611v13.174h-12.913c-12.682 0-22.999 10.317-22.999 22.999V504.6a7.4 7.4 0 0 0 7.4 7.4h302.677a7.4 7.4 0 0 0 7.4-7.4v-23.583c0-12.682-10.317-22.999-22.999-22.999h-12.912v-13.174c0-12.468-10.144-22.611-22.611-22.611H280.04V208.318a7.4 7.4 0 1 0-14.8 0v213.915h-18.482V127.317h18.482v34.185a7.4 7.4 0 1 0 14.8 0v-34.185h46.951c10.585 0 20.951 4.462 28.441 12.244 17.219 17.884 40.353 27.734 65.145 27.734h2.355l-57.446 127.738c-.008.017-.013.034-.02.051-.071.16-.132.324-.191.49-.025.07-.054.139-.077.21a7.074 7.074 0 0 0-.12.432c-.026.099-.055.198-.076.297-.023.108-.038.218-.057.328-.023.139-.048.278-.064.418-.009.082-.012.165-.018.248a7.002 7.002 0 0 0-.025.5l-.003.06v7.267c0 36.931 30.046 66.978 66.978 66.978h5.733c36.932 0 66.978-30.046 66.978-66.978v-7.267c-.001-.02-.004-.04-.004-.061zM255.999 14.799c12.602 0 22.853 10.252 22.853 22.853 0 8.089-4.228 15.204-10.587 19.267a22.85 22.85 0 0 1-.843.514c-.146.085-.291.171-.439.253-.391.215-.787.419-1.189.61-.141.067-.284.129-.426.193-.32.144-.642.281-.967.41-.138.055-.274.111-.413.163a23.45 23.45 0 0 1-1.317.448c-.117.036-.237.067-.355.101-.371.107-.744.204-1.12.292-.126.029-.251.06-.378.087-.474.102-.95.191-1.43.263-.079.012-.159.02-.238.03a22.918 22.918 0 0 1-1.656.168c-.496.032-.994.054-1.494.054s-.998-.022-1.494-.054c-.133-.009-.266-.02-.398-.03-.421-.035-.84-.08-1.257-.138-.08-.011-.16-.019-.24-.031-.48-.072-.956-.161-1.429-.263-.128-.028-.254-.059-.382-.088a22.163 22.163 0 0 1-1.113-.29c-.12-.035-.242-.066-.362-.103a22.722 22.722 0 0 1-1.311-.446c-.143-.053-.283-.112-.425-.168a21.98 21.98 0 0 1-.95-.403c-.147-.066-.295-.13-.44-.199-.398-.19-.791-.391-1.178-.604-.154-.085-.305-.175-.457-.263-.276-.16-.549-.326-.818-.498-6.366-4.061-10.6-11.181-10.6-19.275 0-12.601 10.252-22.853 22.853-22.853zm9.242 59.36v8.901h-18.482v-8.901c.121.031.245.051.366.08.559.136 1.122.26 1.69.37.186.036.373.067.559.1.573.102 1.15.191 1.731.267l.399.051c1.475.176 2.973.278 4.495.278.785 0 1.563-.032 2.336-.08l.012-.001a36.657 36.657 0 0 0 2.138-.196c.141-.017.281-.036.421-.054a36.995 36.995 0 0 0 1.708-.264c.192-.034.384-.066.575-.103a36.2 36.2 0 0 0 1.689-.371c.121-.027.243-.047.363-.077zM80.186 357.513h-5.732c-28.728 0-52.107-23.335-52.179-52.046h110.09c-.072 28.711-23.452 52.046-52.179 52.046zm48.125-66.845H26.316l50.93-113.25 51.065 113.25zm227.904 146.365c4.308 0 7.812 3.504 7.812 7.812v13.174H209.52a7.4 7.4 0 1 0 0 14.8h182.219c4.521 0 8.199 3.678 8.199 8.199v16.183H112.06v-16.183c0-4.521 3.678-8.199 8.199-8.199h42.002a7.4 7.4 0 1 0 0-14.8H147.97v-13.174c0-4.307 3.504-7.812 7.812-7.812h200.433zm64.362-284.538c-20.732 0-40.081-8.239-54.483-23.199-10.265-10.663-24.518-16.779-39.104-16.779H187.937c-17.011 0-32.8 6.845-44.461 19.274-12.345 13.158-30.302 20.704-49.265 20.704H25.043v-14.658h66.38c17.011 0 32.8-6.845 44.461-19.273 12.346-13.158 30.304-20.705 49.269-20.705h141.695c18.965 0 36.922 7.547 49.268 20.706 11.662 12.428 27.452 19.272 44.462 19.272h66.379v14.658h-66.38zm14.029 24.923l51.064 113.25H383.676l50.93-113.25zm2.94 180.095h-5.733c-28.728 0-52.107-23.335-52.178-52.046h110.089c-.072 28.711-23.451 52.046-52.178 52.046z"/></svg>