<svg xmlns="http://www.w3.org/2000/svg" viewBox="0 0 464 464"><g fill="#D19C1E"><path d="M400 424V232c0-19.2-13.6-35.2-32-39.2V136c0-36-14.4-70.4-40-96S268 0 232 0C156.8 0 96 60.8 96 136v56.8c-18.4 4-32 20-32 39.2v192c0 22.4 17.6 40 40 40h256c22.4 0 40-17.6 40-40zm-16-192v24h-56c-13.6 0-24-10.4-24-24v-24h56c13.6 0 24 10.4 24 24zm-64-40H144v-56c0-48.8 39.2-88 88-88 23.2 0 45.6 8.8 62.4 25.6S320 112.8 320 136v56zm-208-56c0-66.4 53.6-120 120-120 32 0 62.4 12.8 84.8 35.2C339.2 73.6 352 104 352 136v56h-16v-56c0-28-11.2-53.6-30.4-73.6S260 32 232 32c-57.6 0-104 46.4-104 104v56h-16v-56zM80 424v-88h24c4.8 0 8-3.2 8-8s-3.2-8-8-8H80v-16h56c4.8 0 8-3.2 8-8s-3.2-8-8-8H80v-16h24c4.8 0 8-3.2 8-8s-3.2-8-8-8H80v-24c0-13.6 10.4-24 24-24h184v24c0 22.4 17.6 40 40 40h56v80h-24c-4.8 0-8 3.2-8 8s3.2 8 8 8h24v16h-56c-4.8 0-8 3.2-8 8s3.2 8 8 8h56v16h-24c-4.8 0-8 3.2-8 8s3.2 8 8 8h22.4c-3.2 9.6-12 16-22.4 16H104c-13.6 0-24-10.4-24-24z"/><path d="M240 320.8V264c0-4.8-3.2-8-8-8s-8 3.2-8 8v56.8c-18.4 4-32 20-32 39.2 0 22.4 17.6 40 40 40s40-17.6 40-40c0-19.2-13.6-35.2-32-39.2zm-8 63.2c-13.6 0-24-10.4-24-24s10.4-24 24-24 24 10.4 24 24-10.4 24-24 24z"/></g></svg>