<svg xmlns="http://www.w3.org/2000/svg" viewBox="0 0 490 490" fill="#D19C1E"><path d="M439.976 110c-.001-2.602-.992-5.159-2.904-7.071l-100-100c-1.912-1.913-4.47-2.904-7.071-2.904V0H60c-5.522 0-10 4.477-10 10v470c0 5.523 4.478 10 10 10h370c5.522 0 10-4.477 10-10V110h-.024zM340 34.142L405.857 100H340V34.142zM420 470H70V20h250v90c0 5.523 4.478 10 10 10h90v350z"/><path d="M125 180.858l-17.929-17.929-14.143 14.143 25 25C119.882 204.024 122.44 205 125 205s5.118-.976 7.071-2.929l50-50-14.143-14.143L125 180.858zM200 150h50v20h-50zM200 180h110v20H200zM265 150h130v20H265zM125 260.858l-17.929-17.929-14.143 14.143 25 25C119.882 284.024 122.44 285 125 285s5.118-.976 7.071-2.929l50-50-14.143-14.143L125 260.858zM200 230h50v20h-50zM200 260h110v20H200zM265 230h130v20H265zM125 340.858l-17.929-17.929-14.143 14.143 25 25C119.882 364.024 122.44 365 125 365s5.118-.976 7.071-2.929l50-50-14.143-14.143L125 340.858zM200 310h50v20h-50zM200 340h110v20H200zM265 310h130v20H265zM125 420.858l-17.929-17.929-14.143 14.143 25 25C119.882 444.024 122.44 445 125 445s5.118-.976 7.071-2.929l50-50-14.143-14.143L125 420.858zM200 390h50v20h-50zM200 420h110v20H200zM265 390h130v20H265zM95 45h50v20H95zM95 75h105v20H95z"/></svg>